<?xml version="1.0" encoding="UTF-8" standalone="no"?>
<svg
   xmlns:dc="http://purl.org/dc/elements/1.1/"
   xmlns:cc="http://creativecommons.org/ns#"
   xmlns:rdf="http://www.w3.org/1999/02/22-rdf-syntax-ns#"
   xmlns:svg="http://www.w3.org/2000/svg"
   xmlns="http://www.w3.org/2000/svg"
   xmlns:sodipodi="http://sodipodi.sourceforge.net/DTD/sodipodi-0.dtd"
   xmlns:inkscape="http://www.inkscape.org/namespaces/inkscape"
   width="475.62292"
   height="337.03531"
   version="1.1"
   id="svg12"
   sodipodi:docname="other_dron.svg"
   inkscape:version="0.92.3 (2405546, 2018-03-11)">
  <defs
     id="defs16" />
  <sodipodi:namedview
     pagecolor="#ffffff"
     bordercolor="#666666"
     borderopacity="1"
     objecttolerance="10"
     gridtolerance="10"
     guidetolerance="10"
     inkscape:pageopacity="0"
     inkscape:pageshadow="2"
     inkscape:window-width="1280"
     inkscape:window-height="751"
     id="namedview14"
     showgrid="false"
     fit-margin-top="0"
     fit-margin-left="0"
     fit-margin-right="0"
     fit-margin-bottom="0"
     inkscape:zoom="1.482306"
     inkscape:cx="182.74621"
     inkscape:cy="136.75159"
     inkscape:window-x="0"
     inkscape:window-y="24"
     inkscape:window-maximized="1"
     inkscape:current-layer="svg12" />
  <metadata
     id="imagebot_7">image/svg+xml<rdf:RDF>
  <cc:Work
     rdf:about="">
    <dc:format>image/svg+xml</dc:format>
    <dc:type
       rdf:resource="http://purl.org/dc/dcmitype/StillImage" />
    <dc:title />
  </cc:Work>
</rdf:RDF>
</metadata>
  <g
     display="none"
     id="g6"
     style="display:none"
     transform="translate(-47.705409,-122.50396)">
    <title
       id="title3">Layer 1</title>
    <path
       id="imagebot_6"
       d="m 24.689236,0.00783152 c 0.06787,-0.0509 0,0.16968 0,0 z"
       inkscape:connector-curvature="0"
       style="fill:none;fill-rule:evenodd;stroke:#000000;stroke-width:1px" />
  </g>
  <g
     display="inline"
     id="imagebot_2"
     transform="matrix(1.2520287,-0.18401896,0.18401896,1.2520287,-247.73944,-455.13308)"
     style="display:inline">
    <path
       transform="matrix(-1,0,0,1,615.896,0)"
       d="m 338.83847,432.48015 c -2.71347,0.38878 -0.4435,3.24155 0.9595,4.29435 1.6277,1.21991 3.72637,2.45397 5.64841,3.55581 2.28406,1.30534 4.61488,2.50618 6.98454,3.59909 1.7764,0.82472 3.59781,1.52198 5.41294,2.2298 1.78411,0.69434 3.0358,1.2122 5.38182,1.98165 2.34459,0.77309 5.85963,1.48306 8.71372,2.52526 2.95993,1.08182 6.05262,1.98748 8.6901,3.85807 1.6501,1.17174 4.52914,1.86218 4.2969,4.49225 0,10e-4 0,10e-4 0,10e-4 -0.36616,0.43995 -0.66897,1.06448 -1.20657,1.65098 -1.09653,1.19602 -1.19709,2.87927 -1.20052,4.44643 -0.0842,2.09625 -2.23615,2.6598 -3.1929,4.14333 -1.40381,2.04355 -1.00102,3.52135 -2.79271,5.19725 -5.64747,5.27359 -13.25355,7.21345 -21.05383,10.77668 -7.80221,3.56297 -17.10123,7.30991 -25.779,10.39506 -14.13737,4.93689 -29.52537,4.06029 -43.38606,-1.69186 -13.27185,-4.18735 -26.27666,-9.58336 -38.96731,-15.57086 -1.93225,-0.91131 -3.31626,-2.89331 -4.55196,-4.85559 -1.42689,-2.26266 -2.5822,-5.03752 -4.96484,-6.21783 -1.31283,-1.30002 -0.33279,-3.79536 -1.51689,-5.25853 -0.52072,-0.65074 -1.04352,-1.27908 -1.55946,-1.9201 0.15759,-1.9572 2.89886,-2.47139 4.25087,-3.15755 2.21461,-1.12366 4.59341,-1.7723 6.93628,-2.47912 2.82601,-0.85588 5.71924,-1.25051 8.56377,-1.95899 2.61943,-0.65258 5.24613,-1.29348 7.8291,-2.11326 2.00975,-0.63418 3.97293,-1.44353 5.95613,-2.17556 1.83356,-0.67643 3.70974,-1.22803 5.49639,-2.04815 3.03161,-1.39078 6.06879,-2.83318 8.82831,-4.85085 1.66229,-0.91886 1.59579,-3.98845 -0.41561,-3.95589 -0.061,10e-4 -0.13251,0 -0.2008,0.012 -1.69803,0.18879 -3.31725,0.90282 -4.95817,1.42586 -2.86612,0.91546 -5.7163,1.90282 -8.5342,2.9977 -2.69522,1.04452 -5.36393,2.18219 -8.00523,3.39819 -1.98064,0.91186 -3.90144,1.98024 -5.87233,2.92073 -3.09719,1.47518 -6.17532,3.01896 -9.34987,4.26232 -3.29365,1.28999 -6.58811,2.64671 -10.03921,3.30904 -1.01379,0.19475 -2.36874,0.89407 -3.31412,0.20515 -0.28474,-0.47042 -0.58024,-0.93403 -0.90501,-1.37492 -1.46384,-2.32332 -1.83252,-5.68977 -4.23664,-7.13928 -0.25192,-0.12966 -0.524,-0.2171 -0.79963,-0.23396 -1.89349,0.021 -2.61726,2.48183 -2.89013,4.25183 -0.17174,1.57457 -0.67519,3.06529 -1.10904,4.47483 -2.08778,0.43962 -4.48506,0.62148 -6.5817,0.94692 -5.0009,0.7701 -10.01396,1.64486 -14.79838,3.51425 -5.76089,2.24936 -11.62725,4.13947 -17.29347,6.69089 -3.70914,1.67305 -7.41792,3.33544 -11.03622,5.2548 -2.54298,1.35059 -5.184,2.56792 -7.4915,4.37935 -2.10552,1.65173 -1.3698,5.66852 0.47066,7.14139 4.06717,0.57686 8.07956,-0.67794 12.0905,-1.25792 3.97034,-0.57416 7.85036,-1.73629 11.69732,-2.98978 4.09994,-1.33471 7.93745,-3.51582 11.82492,-5.46575 5.46086,-2.73868 10.68836,-6.20182 16.49614,-7.97009 0.0877,-0.027 0.28373,-0.01 0.41329,0.044 0.08,0.035 0.19357,0.13317 0.27776,0.21754 1.60936,2.15493 -0.41134,4.11362 -1.35517,5.96786 -2.21533,4.68371 -0.24789,10.99774 3.82971,13.44989 2.74092,1.80839 5.99979,1.97568 8.96318,3.10581 1.53146,0.58377 2.23926,0.83968 2.64513,1.03106 9.34035,4.43152 17.07364,12.31208 23.29848,21.10085 4.73039,6.68141 10.37944,14.51944 9.99612,23.08092 -0.35958,7.96426 -6.56017,14.27127 -11.17472,20.28584 -9.80381,12.77473 -22.41687,22.36813 -34.34977,32.60312 -0.17826,0.15347 -0.55005,0.46522 -1.04652,0.88362 -1.58782,-0.34057 -3.231,-0.46171 -4.77001,-1.47909 -0.54941,-0.36437 -1.80632,-0.64484 -2.86018,-0.8886 -0.79389,-1.78161 -1.62791,-3.57581 -2.59005,-5.17093 -1.32802,-2.19791 -2.60618,-5.23604 -5.24697,-5.44973 -2.54025,-0.20605 -3.60214,3.0952 -4.15868,5.47413 -0.14876,0.63383 -0.47678,1.38678 -0.85477,1.9947 -3.27976,-0.79476 -5.58081,-3.80051 -7.75198,-6.46423 -3.11714,-3.82763 -5.77393,-8.12417 -8.99821,-11.83307 -2.12619,-2.44627 -4.39034,-4.75288 -6.79708,-6.83849 -3.01728,-2.61609 -6.2126,-4.98653 -9.53331,-7.07745 -2.70377,-1.70472 -5.36959,-5.04878 -8.41439,-4.43591 -2.5122,0.50434 -5.09506,3.26522 -5.41412,6.13775 -0.2587,2.33709 1.88023,4.23815 3.17722,6.07844 1.93329,2.74734 4.35616,5.01952 6.75229,7.25013 2.62423,2.44211 5.42629,4.64145 8.30732,6.67737 1.98348,1.40219 4.08114,2.58804 6.16168,3.79896 1.92204,1.12127 3.90921,2.09592 5.83707,3.20762 2.52222,1.45215 5.05557,2.8861 7.48805,4.52565 1.72452,1.16357 3.36242,2.48382 5.02595,3.7626 0.54796,0.42171 1.22702,1.05431 1.82233,1.37913 -0.0204,0.066 -0.0398,0.14156 -0.0603,0.21089 -0.64886,2.08238 -1.55165,4.38244 -1.88236,6.68483 -0.36047,2.52205 -0.44783,4.94764 -1.76468,7.20237 -2.06366,3.53044 -2.3179,8.13843 -1.26508,12.21758 0.70609,2.73869 1.74196,5.77171 3.92876,7.30166 2.181,1.52654 4.54971,3.00412 7.10435,3.41534 2.90464,0.46576 6.00465,0.8878 8.83374,-0.1677 2.11608,-0.78638 4.24437,-1.53362 6.2002,-2.80081 2.20923,-1.43028 4.00667,-3.56553 5.66022,-5.70867 0.75524,-0.97968 2.61253,-2.33291 2.61777,-3.18204 0.0876,0.0947 0.1863,0.20104 0.27847,0.30224 1.77527,1.94247 3.46218,3.99251 5.27718,5.8888 2.21259,2.31442 4.4535,4.6022 6.83264,6.69162 2.16196,1.89979 4.37621,3.74587 6.74305,5.29828 3.09919,2.03212 6.33603,3.81022 9.65761,5.32551 -0.0892,2.79465 -0.10153,5.58853 0.0547,8.38099 0.13828,2.46157 3.69108,2.05559 5.28736,3.40945 2.02929,1.72118 4.03271,-1.5482 4.34035,-3.50019 0.24561,-1.57046 0.41019,-3.15142 0.51842,-4.74063 0.01,0 0.013,-0.01 0.02,-0.01 2.36897,-1.16175 3.3438,-4.90097 3.51989,-7.82189 0.20223,-3.36467 -1.34553,-6.70194 -2.93544,-9.55155 0,0 0,-0.01 0,-0.01 0.29987,-4.21641 0.32674,-8.46132 0.7424,-12.66769 0.4627,-4.64561 0.39902,-9.3204 0.87288,-13.94707 0.68795,-2.99692 4.22461,-4.25742 4.13175,-7.62305 -0.26262,-0.7736 0.36058,-2.39389 0.16579,-3.12297 4.37053,-1.51585 6.31983,-3.79036 10.3239,-6.58613 5.70637,-3.98771 7.46573,3.09981 11.37381,3.72699 10.24514,1.64474 20.70184,0.52684 31.03755,0 6.11092,-0.31134 12.15226,-9.08427 18.2744,-1.86625 2.35942,1.68147 7.24796,2.88351 9.84035,3.84149 -0.026,0.049 -0.051,0.0981 -0.0771,0.15522 1.12858,2.78887 1.7194,5.79232 2.0012,8.85588 0.54019,5.86179 0.64453,11.77622 1.40116,17.59945 0.46842,3.60309 1.07984,7.19932 1.33111,10.82957 0.29204,4.219 0.7134,8.40685 1.16653,12.6017 0.35796,3.30695 0.24563,6.68744 1.14214,9.9302 0.51729,1.87265 1.57604,2.57897 4.86827,2.51309 1.43401,-0.027 2.12136,-2.16989 2.72419,-3.59403 0.85021,-2.00772 0.86888,-4.02698 1.08607,-6.56937 0.3147,-3.69793 0.25803,-7.44738 0.16654,-11.16717 -0.17282,-7.09631 0.38195,-14.23474 -0.27402,-21.3124 -0.29703,-3.21931 -0.59225,-6.43031 -1.28622,-9.58054 -0.44156,-2.00474 -0.7432,-4.05739 -1.40625,-5.98411 l -0.016,-0.3295 0.063,-0.2282 c 6.97523,1.64034 12.8415,7.06204 19.37397,10.30982 3.31404,1.64624 6.73617,2.8601 10.04613,4.64887 -0.2109,0.2558 -0.42213,0.51342 -0.63038,0.77353 -1.05332,1.31505 -1.82833,2.88548 -2.75544,4.31796 -1.50633,2.329 -3.07421,4.60749 -4.55985,6.95415 -3.11129,4.91543 -6.1978,9.85566 -9.1198,14.91971 -1.31264,2.27403 -2.81594,4.44946 -3.77594,6.9416 -0.96828,2.51198 -2.54275,4.71463 -1.94143,7.92463 0.57217,3.03853 2.54902,5.09471 4.32232,7.15062 1.49842,1.73846 3.28827,2.00428 5.19948,0.44057 1.76416,-1.44385 3.53597,-2.8689 5.21238,-4.43351 1.84045,-1.71767 3.61038,-3.5345 5.31207,-5.4276 3.29268,-3.66627 6.62461,-7.33418 9.45284,-11.46748 1.57336,-2.29831 2.85758,-4.8379 4.14304,-7.3551 0.86684,-1.69519 1.42302,-3.60549 2.40206,-5.20891 1.60592,0.87786 2.53626,1.85487 3.92678,2.48622 2.12948,0.96755 4.37317,1.81073 6.66267,1.94999 3.70947,0.2263 7.59285,-0.2236 11.02901,-1.82722 1.48806,-0.69523 3.03092,-1.16719 3.88561,-3.25283 0.70109,-1.71352 2.10116,-3.00977 2.50293,-4.81763 0.81318,-3.67377 0.7951,-7.71814 -0.40152,-11.35488 -0.6938,-2.11283 -2.35302,-3.65211 -1.83411,-6.21844 0.40748,-2.01586 -0.51851,-3.95872 -0.77795,-5.99945 -0.19384,-1.52944 -1.691,-2.47178 -2.08778,-3.94375 -0.06,-0.085 -0.12476,-0.18269 -0.18474,-0.27591 0.40384,-0.69393 1.09319,-1.38409 1.52212,-2.20181 2.16359,-4.13221 5.48755,-7.30166 8.44398,-10.72716 1.49429,-1.72969 3.17082,-3.24387 4.68488,-4.94989 4.49108,-5.06139 9.24344,-9.91734 13.0382,-15.6664 1.37374,-2.08036 2.46179,-4.39674 3.46675,-6.73185 0.87256,-2.02817 1.77085,-4.08846 2.21174,-6.28999 0.41031,-2.05379 1.82394,-4.58714 0.37237,-6.30451 -1.0853,-1.28359 -2.90711,-2.071 -4.46172,-2.07842 -2.57714,-0.011 -4.17364,2.8109 -5.99764,4.60302 -3.5406,3.47496 -6.563,7.60372 -9.45894,11.77663 -1.88637,2.7174 -3.58643,5.60665 -5.12621,8.59143 -1.03012,2.00156 -1.8685,4.12359 -2.73905,6.22138 -1.43197,3.45138 -2.40349,7.16009 -4.08088,10.46564 -1.04255,2.05547 -2.47219,4.1054 -3.69816,5.84128 0,-0.019 0,-0.038 -0.01,-0.056 -0.72955,-1.40479 -1.15684,-3.85665 -2.65305,-4.99951 -1.97616,-1.5062 -4.2925,0.35242 -5.48829,2.18149 -1.06917,1.63298 -1.28504,4.06839 -2.76117,5.20499 -1.34731,1.03624 -1.17853,2.6319 -2.00156,3.75956 -0.93985,1.28748 -1.43829,2.77855 -3.29128,3.34757 -9.18653,-2.95801 -17.97794,-12.88858 -25.48002,-19.2073 -12.54838,-11.64425 -36.11024,-26.60406 -36.16706,-36.9543 -0.044,-8.78877 9.08895,-15.14917 14.14479,-21.38279 5.05659,-6.23359 10.58661,-10.59371 15.87053,-16.00894 2.01477,-2.03863 4.23373,-3.91568 6.43821,-5.37304 2.21704,-1.46576 4.81381,-1.97915 7.32803,-2.55371 3.11815,-0.89914 6.68319,-2.0997 8.23789,-5.61894 1.75485,-3.29689 1.61271,-7.75336 -0.57925,-10.75582 -1.26111,-1.05233 -1.36052,-2.64516 -1.00781,-4.13988 0.25022,-1.05848 5.12809,1.54224 6.134,2.04613 3.4643,1.68116 6.55003,4.23266 9.88931,6.21411 4.08842,2.4266 8.12277,5.02583 12.41685,6.9447 2.2633,1.01201 4.63614,1.68116 6.98787,2.38868 2.0726,0.62354 4.1692,1.14044 6.27051,1.63434 3.00707,0.70632 5.9879,1.92502 9.06102,1.89541 2.46146,-0.022 3.09033,-4.98811 1.42574,-6.85155 -1.75552,-1.73279 -3.70031,-3.14178 -5.68963,-4.46718 -3.66233,-2.4423 -7.57796,-4.36778 -11.4384,-6.38099 -3.55722,-1.85584 -7.17687,-3.55801 -10.79933,-5.24809 -3.25309,-1.51733 -6.46149,-3.19879 -9.81916,-4.39251 -4.29223,-1.52754 -8.72071,-2.53757 -13.13606,-3.51431 -1.50545,-0.333 -3.04124,-0.48512 -4.54632,-0.79816 -0.80296,-0.84519 -0.24474,-2.42596 -1.00759,-3.41585 -0.31416,-1.9967 -0.69699,-4.16248 -1.88823,-5.74295 -0.3491,-0.39678 -0.83991,-0.659 -1.34278,-0.60122 -2.19653,0.4542 -3.07157,3.08845 -3.87017,5.13785 -0.71856,1.30066 -1.426,2.4687 -1.97483,3.92115 -2.17027,0.037 -3.95729,-1.03901 -5.88928,-1.74368 -3.68183,-1.34317 -7.30595,-2.91733 -10.82909,-4.7271 -2.59866,-1.33129 -5.02346,-3.06334 -7.57909,-4.49733 -4.39046,-2.46598 -8.81776,-4.8502 -13.316,-7.05095 -2.44353,-1.19644 -4.88661,-2.42254 -7.42232,-3.34266 -1.18376,-0.43256 -2.35766,-1.0313 -3.62232,-1.01667 z m -45.3143,72.51771 0.11888,0.067 c -0.56168,1.18568 -10.59188,22.54562 -2.68684,61.78224 0.63295,3.14262 -4.12966,4.51314 -4.78323,1.23046 -7.11871,-35.82617 6.77789,-61.87464 7.35119,-63.08449 z m 32.2107,0 c 0.57451,1.21197 14.47147,27.26079 7.35137,63.08628 -0.6537,3.28252 -5.41657,1.90987 -4.78188,-1.22901 7.90322,-39.23929 -2.12627,-60.5985 -2.68644,-61.78289 z m -16.70715,60.15715 c 2.07848,0.01 4.10032,0.19674 5.58591,0.74674 2.90354,1.07418 5.97695,3.10501 7.35098,6.19762 0.59802,1.3445 0.66383,3.20594 0.01,4.51438 -0.6497,1.29776 -1.72134,2.28399 -3.39613,2.29119 -0.87331,0 -0.93594,-1.13126 0,-1.12689 1.38233,0.01 2.17209,-0.58273 2.75489,-1.53842 0.66612,-1.09508 0.82064,-2.76255 0.33863,-3.97344 -1.21812,-3.06618 -4.387,-4.85861 -7.19958,-5.91744 -4.70325,-1.7706 -14.86194,-0.23489 -14.86194,-0.23489 v -0.067 c 0,0 4.84356,-0.89846 9.41595,-0.89009 z m 0.27226,5.20821 c 0.037,0 0.075,0.001 0.11903,0 0.88672,0 1.76846,0.34654 2.46035,0.97344 2.07081,1.72405 1.94741,5.67229 -0.2246,7.22578 -2.06372,1.73528 -5.34919,0.43313 -6.01483,-2.38121 -0.83704,-2.70405 1.15067,-5.82962 3.66005,-5.82071 z m 0.11416,0.13938 c -0.046,0 -0.0981,0 -0.14742,0 -0.38845,0 -0.78118,0.07 -1.1481,0.22109 -1.55345,0.58851 -2.6501,2.42664 -2.52761,4.28112 0.033,1.33963 0.68769,2.58051 1.61261,3.38345 0.35019,0.28758 0.75284,0.51058 1.17276,0.64004 0.52774,0.23 1.10378,0.19746 1.65841,0.14236 0.55633,-0.18008 1.19375,-0.28572 1.60597,-0.79021 0.2634,-0.23175 0.64168,-0.62674 0.74923,-0.86684 -0.17358,0.21605 -0.42055,0.50003 -0.60342,0.61483 -0.0922,-0.28113 0.023,0.14071 -0.059,0.011 -0.013,0.0922 -0.20085,0.19727 -0.30626,0.27176 -0.027,0.015 -0.23816,0.26692 -0.32227,0.081 -0.21137,-0.016 0.22855,0.11946 -0.052,0.16106 -0.11823,0.19012 -0.31127,-0.28876 -0.33832,-0.071 0.02,-0.16874 0.2917,0.33664 0.074,0.038 -0.0999,0.11668 0.15041,0.084 -0.053,0.17381 0.029,-0.04 -0.047,-0.1891 -0.0935,-0.14902 -0.17551,0.075 0.022,-0.29908 0.20787,-0.17954 0.13411,-0.0999 0.26385,-0.20908 0.48634,-0.36615 0.16857,-0.099 0.21369,-0.09 0.28195,-0.20882 0.20616,-0.16645 0.25796,-0.43699 0.44574,-0.59987 0.13141,-0.19848 0.16129,-0.34402 0.26577,-0.43309 0.14897,-0.27972 0.183,-0.60537 0.31998,-0.94246 0.12228,-0.048 0,-0.57852 0.23394,-0.74955 0.04,-0.72407 -0.053,-1.46558 -0.37236,-2.10243 0.01,0.17421 0.21943,0.59681 0.25166,0.87854 0.0782,0.37648 0.14172,0.94332 0.058,1.22926 -0.0901,-0.22406 -0.033,-0.70168 -0.11154,-1.02184 -0.025,-0.40528 -0.19817,-0.55535 -0.24945,-0.85492 -0.25608,-0.4501 0.12476,0.3312 0.053,0.42453 -0.16615,-0.18953 -0.24148,-0.57955 -0.4435,-0.854 -0.45967,-0.79959 -1.22993,-1.30672 -2.03971,-1.51787 -0.1626,-0.0904 0.40922,0.065 0.50951,0.0967 -0.026,-0.071 -0.55021,-0.18864 -0.76128,-0.23582 0.17956,-0.049 0.41241,0.049 0.63847,0.0983 0.35378,0.078 0.031,-0.1413 -0.1509,-0.18064 0.85561,0.22903 1.64151,0.83674 2.09404,1.69983 0.20353,0.35986 0.06,-0.029 -0.054,-0.1523 -0.17256,-0.35356 -0.45432,-0.61705 -0.70869,-0.88817 -0.25856,-0.19063 -0.56071,-0.44964 -0.88492,-0.57108 -0.21792,-0.075 -0.43363,-0.20836 -0.60616,-0.19291 -0.31167,-0.01 -0.19224,-0.0945 -0.32065,-0.35768 0.024,-0.0992 0.45382,0.025 0.61478,0.051 0.38254,0.055 0.84608,0.35512 1.11005,0.48304 -0.6244,-0.43473 -1.34736,-0.71767 -2.08436,-0.7236 z m 0.0935,0.1327 c 0.026,0 0.052,4.2e-4 0.0782,0.01 h 0.065 l 0.039,0.012 c -0.15945,0.046 -0.11353,0.24951 -0.11353,0.30084 -0.065,-0.0998 -0.40478,0.093 -0.36202,-0.041 -0.064,-0.17888 0.0842,-0.28097 0.28075,-0.28195 z m -0.33841,0.029 c 0.055,0.21005 0,0.19464 -0.023,0.12802 -0.01,0.014 -0.037,0.018 -0.074,0.01 0.25052,0.2082 -0.15315,0.095 0.022,-0.0909 0.022,0.017 0.037,0.032 0.046,0.045 0,-0.027 0.01,-0.056 0.03,-0.081 z m -0.23519,0.077 c 0.023,0 0.12733,0.086 0.038,0.063 0.15945,0.0992 -0.014,0.072 0.0763,0.13339 -0.01,0.13519 -0.18498,-0.16457 -0.12172,-0.20083 z m 0.66615,0.69439 c 0.021,0 0.041,0 0.059,0 0.72732,0 1.42569,0.38419 1.93599,0.96068 0.81414,0.88707 1.16067,2.30273 0.77855,3.52145 -0.1991,0.64707 -0.53668,1.29933 -1.0738,1.64301 -0.47696,0.39556 -1.06445,0.65617 -1.66271,0.68753 -1.18926,0.0994 -2.38009,-0.71263 -2.86899,-1.94148 -0.16147,-0.39948 -0.22305,-0.82979 -0.25771,-1.26312 0.017,-0.73208 0.202,-1.49441 0.61311,-2.07167 0.14167,-0.14128 0.20734,-0.31986 0.31832,-0.38764 0.2376,-0.16722 0.51692,-0.41322 0.73827,-0.52208 0.37049,-0.16864 0,0.079 -0.16614,0.20331 -0.77672,0.57281 -1.25866,1.60585 -1.24445,2.65663 -0.023,0.98139 0.47686,1.90433 1.15389,2.4652 0.33517,0.31381 0.76684,0.46441 1.19562,0.53028 0.96247,0.21713 1.96223,-0.33848 2.535,-1.20956 0.26162,-0.46932 0.49025,-0.99182 0.49987,-1.55733 0.14048,-1.19349 -0.45624,-2.4073 -1.37706,-2.97771 -0.31113,-0.20207 -0.68996,-0.30899 -1.01206,-0.3991 -0.29507,-0.012 -0.61993,-0.04 -0.90267,0.031 -0.29088,0.17837 -0.16133,-0.077 0.04,-0.036 0.19196,-0.08 0.46583,-0.066 0.70331,-0.067 0.85762,0.018 1.64715,0.57153 2.1549,1.33104 0.36953,0.52987 0.48057,1.23529 0.52847,1.89172 0,0.62395 -0.17516,1.25669 -0.48833,1.77046 -0.39924,0.67562 -1.01728,1.17184 -1.71407,1.36858 0.039,0.032 0.52199,-0.1 0.68676,-0.19804 0.2517,-0.13566 0.46496,-0.3347 0.63774,-0.49342 0.19684,-0.18739 0.36348,-0.44521 0.47471,-0.68317 0.32873,-0.61062 0.463,-1.34342 0.47472,-2.05231 -0.069,-1.29369 -0.90281,-2.49114 -1.98271,-2.89758 -0.26295,-0.13406 -0.6202,-0.0994 -0.83241,-0.25817 -0.29707,0.01 -0.10569,-0.039 0.045,-0.041 z m 1.50238,0.14361 c 0.10879,0.12968 0.21879,0.1401 -0.023,0.034 0.18812,0.2032 0.51162,0.39882 0.72363,0.64027 -0.12188,-0.17926 -0.36924,-0.38832 -0.55349,-0.55076 0.33634,0.22213 0.61353,0.5462 0.86381,0.88248 -0.23772,-0.38313 -0.60026,-0.80125 -1.00972,-1.00887 z m -2.2934,0.03 c 0,0.089 -0.28132,0.05 0,0 z m -0.28094,0.086 h 0.01 c -0.18487,0.13529 -0.32943,0.21781 -0.55668,0.34766 -0.034,-0.15745 0.40557,-0.2553 0.55122,-0.35174 z m 3.61422,1.01358 v 0.021 c 0.11857,0.2697 0.1551,0.17704 0,-0.021 z m -1.64796,0.12484 c 0.29088,0.084 0.49146,0.41283 0.65272,0.68436 0.29799,0.34195 -0.34655,0.98696 -0.445,0.44894 0.01,-0.38409 -0.2386,-0.81169 -0.20772,-1.1333 z m -4.57615,0.59915 c 0.037,0.018 -0.044,0.0981 -0.014,0.11164 -0.0834,0.32503 -0.0817,0.029 0.014,-0.11164 z m 1.3632,0.06 c 0.1526,0.24237 -0.19402,0.75782 -0.0817,1.09547 0.0931,-0.028 0.0869,0.38302 0.12576,0.62878 0.11645,0.66829 0.53269,1.22401 1.01481,1.60395 -0.13156,-9e-4 -0.33866,-0.20423 -0.10368,0.055 0.32466,0.1977 0.68887,0.34764 1.0609,0.38736 0.41351,0.01 0.042,0.09 -0.16313,0.073 -0.064,0.099 0.6378,0.021 0.3009,0.25903 -0.59037,0.061 -1.19541,-0.20373 -1.64179,-0.63833 -0.3518,-0.27889 -0.554,-0.71327 -0.70781,-1.1532 -0.26522,-0.74287 -0.23377,-1.66863 0.19902,-2.31929 z m 5.50008,0.94205 c -0.022,0.36014 0.039,0.21116 0,0 z m -5.56557,0.5179 c -0.03,0.091 0.011,0.20577 0.023,0.30291 0.12477,0.49329 0,-0.12869 -0.023,-0.30291 z m 0.52278,0.20843 c 0.23028,0.40492 0.49057,0.79344 0.81553,1.10854 0.29181,0.14644 0.025,0.46009 -0.21656,0.27126 -0.33135,-0.15297 -0.61659,-0.48845 -0.71404,-0.87679 0.22506,-0.017 0.13906,-0.18292 0.11507,-0.50301 z m 5.23048,0.22936 -0.055,0.012 c -0.26266,0.39455 0.48483,0.19244 0.055,-0.012 z m 0.015,0.028 c 0.18535,0.0927 0.01,0.26841 0,0 z m -0.05,0.75212 c -0.10606,0.083 -0.045,0.1712 -0.11711,0.23957 -0.1212,0.23501 -0.26125,0.53724 -0.099,0.50298 0.23179,-0.081 0.37466,-0.53163 0.21679,-0.74255 z m -0.89802,1.16058 c -0.22932,0.24866 -0.1,0.23326 0,0 z m -0.099,0.48083 c -0.047,0.045 -0.062,-9.2e-4 -0.0898,0.10025 -0.19504,0.079 -0.2899,0.0985 -0.021,0.048 0.10014,-0.18708 0.13758,0.0999 0.11832,-0.16354 z m -3.90269,0.33773 v 0 c 0.24819,0.03 0.43939,0.22955 0.42333,0.31836 -0.11295,0.043 -0.78087,-0.30447 -0.42333,-0.31865 z m 2.53019,0.05 0.043,0.01 c 0.37958,0.19029 -0.225,0.066 -0.043,-0.01 z m -0.12113,0.067 c 0.037,0.05 0,0.081 0.0833,0.037 0.10313,0.052 -0.19667,0.087 -0.28914,0.18534 -0.13,0 -0.42752,0.099 -0.56801,0.065 -0.14625,0.16297 -0.10423,-0.26604 0.13539,-0.099 0.25579,0.029 0.41487,-0.0947 0.63215,-0.18341 z m -0.95422,0.14304 c 0.19536,0.038 -0.029,0.15619 -0.0999,0.14586 -0.26951,0.21851 -0.025,-0.0992 0.0999,-0.14586 z m 1.40895,0.038 c -0.044,0.12387 0.13245,0.20447 0,0 z m -0.39666,0.08 c 0.0949,0.018 -0.064,0.046 -0.012,0.099 -0.041,0.17615 -0.24137,-0.053 0.012,-0.099 z m -2.02177,0.036 c 0.1349,-8.8e-4 -0.049,0.16015 -0.03,0 0.011,-8.8e-4 0.021,0 0.03,0 z m 2.0776,0.15721 c 0.10778,0.099 -0.12845,0.17522 0,0 z m -0.95295,0.012 c 0.16371,0.067 -0.036,0.085 0,0 z m 0.16122,0.099 c 0.13483,0.12602 -0.032,0.16069 0,0 z m -50.87365,11.06517 c -0.015,0.12855 -0.56629,2.25292 -0.79218,3.39442 -0.50792,2.54939 -0.87509,5.13241 -1.27492,7.70647 -0.3685,2.3895 -0.56966,3.22369 -1.03492,7.18269 -0.19768,1.68816 -0.33051,3.38274 -0.42001,5.08194 -0.65464,-0.57737 -1.3072,-1.15124 -1.95753,-1.72978 -3.20092,-2.8454 -6.31055,-5.84403 -9.70498,-8.38077 -1.39009,-1.03859 -2.78673,-2.07468 -4.18939,-3.09811 0.81843,-0.33724 1.63743,-0.68246 2.45855,-1.03551 1.97759,-0.85062 3.78554,-2.13985 5.69321,-3.17683 3.72129,-2.02452 7.45958,-4.16306 11.22217,-5.94452 z"
       id="imagebot_3"
       inkscape:connector-curvature="0"
       style="fill:#000000;stroke-width:0.0944" />
    <title
       id="title9">imagebot_2</title>
  </g>
</svg>
